
<svg xmlns="http://www.w3.org/2000/svg" version="1.1" xmlns:xlink="http://www.w3.org/1999/xlink" preserveAspectRatio="none" x="0px" y="0px" width="210px" height="700px" viewBox="0 0 210 700">
<defs>
<g id="Layer1_0_MEMBER_0_MEMBER_0_MEMBER_0_FILL">
<path fill="#FFFFFF" stroke="none" d="
M 49.45 31.55
Q 49.45 30.6 48.75 30 48.1 29.25 47.15 29.25
L 44.3 29.25 44.3 23.9
Q 44.3 20.5 41.65 17.75 38.8 14.9 34.9 14.9 30.95 14.9 28.1 17.75 25.35 20.6 25.35 23.9
L 25.35 29.25 22.75 29.25
Q 21.85 29.25 21.1 30 20.45 30.6 20.45 31.55
L 20.45 48.95
Q 20.45 49.9 21.1 50.5 21.85 51.25 22.75 51.25
L 47.15 51.25
Q 48.1 51.25 48.75 50.5 49.45 49.9 49.45 48.95
L 49.45 31.55
M 40.9 23.9
L 40.9 29.25 28.85 29.25 28.85 23.9
Q 28.85 22 30.5 20.25 32.25 18.3 34.9 18.3 37.4 18.3 39.25 20.25 40.9 22.05 40.9 23.9 Z"/>
</g>

<g id="Layer1_1_MEMBER_0_MEMBER_0_MEMBER_0_FILL">
<path fill="#000000" fill-opacity="0.00392156862745098" stroke="none" d="
M 0 70
L 70 70 70 0 0 0 0 70 Z"/>
</g>

<g id="Layer1_2_MEMBER_0_MEMBER_0_MEMBER_0_FILL">
<path fill="#000000" fill-opacity="0.00392156862745098" stroke="none" d="
M 70 70
L 0 70 0 140 70 140 70 70 Z"/>
</g>

<g id="Layer1_3_FILL">
<path fill="#FFFFFF" stroke="none" d="
M 43.6 118.2
Q 44.5841796875 116.109375 42.6 115.8
L 36.65 115.8 40.05 108.65 27.65 108.65 24.65 117.85
Q 23.8052734375 120.7205078125 26.35 120.8
L 33.8 120.8 30.15 133.85
Q 30.08515625 134.9970703125 31.15 134.45
L 43.6 118.2
M 39.5 84.2
Q 34.89453125 78.541796875 26.9 79.85 17.68046875 82.7361328125 16.9 92.15 11.025390625 92.10859375 9.85 98.7 9.60078125 105.778515625 15.95 105.75
L 54.1 105.75
Q 58.7654296875 105.6640625 59.65 101.2 61.0388671875 96.2423828125 56.2 93.3 56.5732421875 87.912109375 52.85 84.2 46.6220703125 79.1544921875 39.5 84.2 Z"/>
</g>

<g id="Layer1_4_MEMBER_0_MEMBER_0_MEMBER_0_FILL">
<path fill="#000000" fill-opacity="0.00392156862745098" stroke="none" d="
M 140 70
L 70 70 70 140 140 140 140 70 Z"/>
</g>

<g id="Layer1_5_MEMBER_0_MEMBER_0_MEMBER_0_FILL">
<path fill="#FFFFFF" stroke="none" d="
M 105.2 90.15
Q 98.9 90.15 93.1 94 87.35 97.85 83.6 104.3 82.9 105.15 83.6 105.75 87.3 112.45 93.1 116.25 98.75 120 105.2 120 111.35 120 117.2 116.2 122.75 112.5 126.7 105.75 127 105.15 126.7 104.3 123 97.65 117.2 93.9 111.5 90.15 105.2 90.15
M 110.2 110.1
Q 107.95 112.25 105.2 112.25 102.25 112.25 100.1 110.1 98.1 108.1 98.1 105.1 98.1 102.2 100.2 100.15 102.3 98 105.2 98 108.05 98 110.2 100.15 112.2 102.15 112.2 105.1 112.2 108 110.2 110.1 Z"/>
</g>

<g id="Layer1_6_MEMBER_0_MEMBER_0_MEMBER_0_FILL">
<path fill="#000000" fill-opacity="0.00392156862745098" stroke="none" d="
M 210 140
L 210 70 140 70 140 140 210 140 Z"/>
</g>

<g id="Layer1_7_MEMBER_0_MEMBER_0_MEMBER_0_FILL">
<path fill="#FFFFFF" stroke="none" d="
M 175.2 90.15
Q 168.9 90.15 163.1 94 157.35 97.85 153.6 104.3 152.9 105.15 153.6 105.75 157.3 112.45 163.1 116.25 168.75 120 175.2 120 181.35 120 187.2 116.2 192.75 112.5 196.7 105.75 197 105.15 196.7 104.3 193 97.65 187.2 93.9 181.5 90.15 175.2 90.15
M 180.2 110.1
Q 177.95 112.25 175.2 112.25 172.25 112.25 170.1 110.1 168.1 108.1 168.1 105.1 168.1 102.2 170.2 100.15 172.3 98 175.2 98 178.05 98 180.2 100.15 182.2 102.15 182.2 105.1 182.2 108 180.2 110.1 Z"/>
</g>

<g id="Layer1_8_MEMBER_0_MEMBER_0_MEMBER_0_FILL">
<path fill="#000000" fill-opacity="0.00392156862745098" stroke="none" d="
M 70 140
L 0 140 0 210 70 210 70 140 Z"/>
</g>

<g id="Layer1_9_MEMBER_0_MEMBER_0_MEMBER_0_FILL">
<path fill="#FFFFFF" stroke="none" d="
M 35.2 160.15
Q 28.9 160.15 23.1 164 17.35 167.85 13.6 174.3 12.9 175.15 13.6 175.75 17.3 182.45 23.1 186.25 28.75 190 35.2 190 41.35 190 47.2 186.2 52.75 182.5 56.7 175.75 57 175.15 56.7 174.3 53 167.65 47.2 163.9 41.5 160.15 35.2 160.15
M 30.2 170.15
Q 32.3 168 35.2 168 38.05 168 40.2 170.15 42.2 172.15 42.2 175.1 42.2 178 40.2 180.1 37.95 182.25 35.2 182.25 32.25 182.25 30.1 180.1 28.1 178.1 28.1 175.1 28.1 172.2 30.2 170.15 Z"/>
</g>

<g id="Layer1_10_MEMBER_0_MEMBER_0_MEMBER_0_FILL">
<path fill="#000000" fill-opacity="0.00392156862745098" stroke="none" d="
M 140 140
L 70 140 70 210 140 210 140 140 Z"/>
</g>

<g id="Layer1_11_MEMBER_0_MEMBER_0_MEMBER_0_FILL">
<path fill="#FFFFFF" stroke="none" d="
M 117.2 163.9
Q 111.5 160.15 105.2 160.15 98.9 160.15 93.1 164 87.35 167.85 83.6 174.3 82.9 175.15 83.6 175.75 87.3 182.45 93.1 186.25 98.75 190 105.2 190 111.35 190 117.2 186.2 122.75 182.5 126.7 175.75 127 175.15 126.7 174.3 123 167.65 117.2 163.9
M 105.2 168
Q 108.05 168 110.2 170.15 112.2 172.15 112.2 175.1 112.2 178 110.2 180.1 107.95 182.25 105.2 182.25 102.25 182.25 100.1 180.1 98.1 178.1 98.1 175.1 98.1 172.2 100.2 170.15 102.3 168 105.2 168 Z"/>
</g>

<g id="Layer1_12_MEMBER_0_MEMBER_0_MEMBER_0_FILL">
<path fill="#000000" fill-opacity="0.00392156862745098" stroke="none" d="
M 210 140
L 140 140 140 210 210 210 210 140 Z"/>
</g>

<g id="Layer1_13_MEMBER_0_MEMBER_0_MEMBER_0_FILL">
<path fill="#FFFFFF" stroke="none" d="
M 175.2 160.15
Q 168.9 160.15 163.1 164 157.35 167.85 153.6 174.3 152.9 175.15 153.6 175.75 157.3 182.45 163.1 186.25 168.75 190 175.2 190 181.35 190 187.2 186.2 192.75 182.5 196.7 175.75 197 175.15 196.7 174.3 193 167.65 187.2 163.9 181.5 160.15 175.2 160.15
M 170.2 170.15
Q 172.3 168 175.2 168 178.05 168 180.2 170.15 182.2 172.15 182.2 175.1 182.2 178 180.2 180.1 177.95 182.25 175.2 182.25 172.25 182.25 170.1 180.1 168.1 178.1 168.1 175.1 168.1 172.2 170.2 170.15 Z"/>
</g>

<g id="Layer1_14_MEMBER_0_MEMBER_0_MEMBER_0_FILL">
<path fill="#000000" fill-opacity="0.00392156862745098" stroke="none" d="
M 70 210
L 0 210 0 280 70 280 70 210 Z"/>
</g>

<g id="Layer1_15_MEMBER_0_MEMBER_0_MEMBER_0_FILL">
<path fill="#FFFFFF" stroke="none" d="
M 56.7 244.3
Q 53 237.65 47.2 233.9 41.5 230.15 35.2 230.15 28.9 230.15 23.1 234 17.35 237.85 13.6 244.3 12.9 245.15 13.6 245.75 17.3 252.45 23.1 256.25 28.75 260 35.2 260 41.35 260 47.2 256.2 52.75 252.5 56.7 245.75 57 245.15 56.7 244.3
M 35.2 238
Q 38.05 238 40.2 240.15 42.2 242.15 42.2 245.1 42.2 248 40.2 250.1 37.95 252.25 35.2 252.25 32.25 252.25 30.1 250.1 28.1 248.1 28.1 245.1 28.1 242.2 30.2 240.15 32.3 238 35.2 238 Z"/>
</g>

<g id="Layer1_16_MEMBER_0_MEMBER_0_MEMBER_0_FILL">
<path fill="#000000" fill-opacity="0.00392156862745098" stroke="none" d="
M 140 280
L 140 210 70 210 70 280 140 280 Z"/>
</g>

<g id="Layer1_17_MEMBER_0_MEMBER_0_MEMBER_0_FILL">
<path fill="#FFFFFF" stroke="none" d="
M 126.7 245.75
Q 127 245.15 126.7 244.3 123 237.65 117.2 233.9 111.5 230.15 105.2 230.15 98.9 230.15 93.1 234 87.35 237.85 83.6 244.3 82.9 245.15 83.6 245.75 87.3 252.45 93.1 256.25 98.75 260 105.2 260 111.35 260 117.2 256.2 122.75 252.5 126.7 245.75
M 110.2 240.15
Q 112.2 242.15 112.2 245.1 112.2 248 110.2 250.1 107.95 252.25 105.2 252.25 102.25 252.25 100.1 250.1 98.1 248.1 98.1 245.1 98.1 242.2 100.2 240.15 102.3 238 105.2 238 108.05 238 110.2 240.15 Z"/>
</g>

<g id="Layer1_18_MEMBER_0_MEMBER_0_MEMBER_0_FILL">
<path fill="#000000" fill-opacity="0.00392156862745098" stroke="none" d="
M 140 210
L 140 280 210 280 210 210 140 210 Z"/>
</g>

<g id="Layer1_19_MEMBER_0_MEMBER_0_MEMBER_0_FILL">
<path fill="#FFFFFF" stroke="none" d="
M 153.6 244.3
Q 152.9 245.15 153.6 245.75 157.3 252.45 163.1 256.25 168.75 260 175.2 260 181.35 260 187.2 256.2 192.75 252.5 196.7 245.75 197 245.15 196.7 244.3 193 237.65 187.2 233.9 181.5 230.15 175.2 230.15 168.9 230.15 163.1 234 157.35 237.85 153.6 244.3
M 180.2 240.15
Q 182.2 242.15 182.2 245.1 182.2 248 180.2 250.1 177.95 252.25 175.2 252.25 172.25 252.25 170.1 250.1 168.1 248.1 168.1 245.1 168.1 242.2 170.2 240.15 172.3 238 175.2 238 178.05 238 180.2 240.15 Z"/>
</g>

<g id="Layer1_20_MEMBER_0_MEMBER_0_MEMBER_0_FILL">
<path fill="#000000" fill-opacity="0.00392156862745098" stroke="none" d="
M 70 280
L 0 280 0 350 70 350 70 280 Z"/>
</g>

<g id="Layer1_21_MEMBER_0_MEMBER_0_MEMBER_0_FILL">
<path fill="#FFFFFF" stroke="none" d="
M 47.2 326.2
Q 52.75 322.5 56.7 315.75 57 315.15 56.7 314.3 53 307.65 47.2 303.9 41.5 300.15 35.2 300.15 28.9 300.15 23.1 304 17.35 307.85 13.6 314.3 12.9 315.15 13.6 315.75 17.3 322.45 23.1 326.25 28.75 330 35.2 330 41.35 330 47.2 326.2
M 30.1 320.1
Q 28.1 318.1 28.1 315.1 28.1 312.2 30.2 310.15 32.3 308 35.2 308 38.05 308 40.2 310.15 42.2 312.15 42.2 315.1 42.2 318 40.2 320.1 37.95 322.25 35.2 322.25 32.25 322.25 30.1 320.1 Z"/>
</g>

<g id="Layer1_22_MEMBER_0_MEMBER_0_MEMBER_0_FILL">
<path fill="#000000" fill-opacity="0.00392156862745098" stroke="none" d="
M 140 280
L 70 280 70 350 140 350 140 280 Z"/>
</g>

<g id="Layer1_23_MEMBER_0_MEMBER_0_MEMBER_0_FILL">
<path fill="#FFFFFF" stroke="none" d="
M 126.7 315.75
Q 127 315.15 126.7 314.3 123 307.65 117.2 303.9 111.5 300.15 105.2 300.15 98.9 300.15 93.1 304 87.35 307.85 83.6 314.3 82.9 315.15 83.6 315.75 87.3 322.45 93.1 326.25 98.75 330 105.2 330 111.35 330 117.2 326.2 122.75 322.5 126.7 315.75
M 105.2 308
Q 108.05 308 110.2 310.15 112.2 312.15 112.2 315.1 112.2 318 110.2 320.1 107.95 322.25 105.2 322.25 102.25 322.25 100.1 320.1 98.1 318.1 98.1 315.1 98.1 312.2 100.2 310.15 102.3 308 105.2 308 Z"/>
</g>

<g id="Layer1_24_MEMBER_0_MEMBER_0_MEMBER_0_FILL">
<path fill="#000000" fill-opacity="0.00392156862745098" stroke="none" d="
M 140 280
L 140 350 210 350 210 280 140 280 Z"/>
</g>

<g id="Layer1_25_MEMBER_0_MEMBER_0_MEMBER_0_FILL">
<path fill="#FFFFFF" stroke="none" d="
M 153.6 314.3
Q 152.9 315.15 153.6 315.75 157.3 322.45 163.1 326.25 168.75 330 175.2 330 181.35 330 187.2 326.2 192.75 322.5 196.7 315.75 197 315.15 196.7 314.3 193 307.65 187.2 303.9 181.5 300.15 175.2 300.15 168.9 300.15 163.1 304 157.35 307.85 153.6 314.3
M 170.1 320.1
Q 168.1 318.1 168.1 315.1 168.1 312.2 170.2 310.15 172.3 308 175.2 308 178.05 308 180.2 310.15 182.2 312.15 182.2 315.1 182.2 318 180.2 320.1 177.95 322.25 175.2 322.25 172.25 322.25 170.1 320.1 Z"/>
</g>

<g id="Layer1_26_MEMBER_0_MEMBER_0_MEMBER_0_FILL">
<path fill="#000000" fill-opacity="0.00392156862745098" stroke="none" d="
M 70 350
L 0 350 0 420 70 420 70 350 Z"/>
</g>

<g id="Layer1_27_MEMBER_0_MEMBER_0_MEMBER_0_FILL">
<path fill="#FFFFFF" stroke="none" d="
M 13.6 384.3
Q 12.9 385.15 13.6 385.75 17.3 392.45 23.1 396.25 28.75 400 35.2 400 41.35 400 47.2 396.2 52.75 392.5 56.7 385.75 57 385.15 56.7 384.3 53 377.65 47.2 373.9 41.5 370.15 35.2 370.15 28.9 370.15 23.1 374 17.35 377.85 13.6 384.3
M 40.2 390.1
Q 37.95 392.25 35.2 392.25 32.25 392.25 30.1 390.1 28.1 388.1 28.1 385.1 28.1 382.2 30.2 380.15 32.3 378 35.2 378 38.05 378 40.2 380.15 42.2 382.15 42.2 385.1 42.2 388 40.2 390.1 Z"/>
</g>

<g id="Layer1_28_MEMBER_0_MEMBER_0_MEMBER_0_FILL">
<path fill="#000000" fill-opacity="0.00392156862745098" stroke="none" d="
M 140 350
L 70 350 70 420 140 420 140 350 Z"/>
</g>

<g id="Layer1_29_MEMBER_0_MEMBER_0_MEMBER_0_FILL">
<path fill="#FFFFFF" stroke="none" d="
M 83.6 384.3
Q 82.9 385.15 83.6 385.75 87.3 392.45 93.1 396.25 98.75 400 105.2 400 111.35 400 117.2 396.2 122.75 392.5 126.7 385.75 127 385.15 126.7 384.3 123 377.65 117.2 373.9 111.5 370.15 105.2 370.15 98.9 370.15 93.1 374 87.35 377.85 83.6 384.3
M 100.1 390.1
Q 98.1 388.1 98.1 385.1 98.1 382.2 100.2 380.15 102.3 378 105.2 378 108.05 378 110.2 380.15 112.2 382.15 112.2 385.1 112.2 388 110.2 390.1 107.95 392.25 105.2 392.25 102.25 392.25 100.1 390.1 Z"/>
</g>

<g id="Layer1_30_MEMBER_0_MEMBER_0_MEMBER_0_FILL">
<path fill="#000000" fill-opacity="0.00392156862745098" stroke="none" d="
M 210 350
L 140 350 140 420 210 420 210 350 Z"/>
</g>

<g id="Layer1_31_MEMBER_0_MEMBER_0_MEMBER_0_FILL">
<path fill="#FFFFFF" stroke="none" d="
M 153.6 384.3
Q 152.9 385.15 153.6 385.75 157.3 392.45 163.1 396.25 168.75 400 175.2 400 181.35 400 187.2 396.2 192.75 392.5 196.7 385.75 197 385.15 196.7 384.3 193 377.65 187.2 373.9 181.5 370.15 175.2 370.15 168.9 370.15 163.1 374 157.35 377.85 153.6 384.3
M 180.2 390.1
Q 177.95 392.25 175.2 392.25 172.25 392.25 170.1 390.1 168.1 388.1 168.1 385.1 168.1 382.2 170.2 380.15 172.3 378 175.2 378 178.05 378 180.2 380.15 182.2 382.15 182.2 385.1 182.2 388 180.2 390.1 Z"/>
</g>

<g id="Layer1_32_MEMBER_0_MEMBER_0_MEMBER_0_FILL">
<path fill="#000000" fill-opacity="0.00392156862745098" stroke="none" d="
M 70 420
L 0 420 0 490 70 490 70 420 Z"/>
</g>

<g id="Layer1_33_MEMBER_0_MEMBER_0_MEMBER_0_FILL">
<path fill="#FFFFFF" stroke="none" d="
M 35.2 440.15
Q 28.9 440.15 23.1 444 17.35 447.85 13.6 454.3 12.9 455.15 13.6 455.75 17.3 462.45 23.1 466.25 28.75 470 35.2 470 41.35 470 47.2 466.2 52.75 462.5 56.7 455.75 57 455.15 56.7 454.3 53 447.65 47.2 443.9 41.5 440.15 35.2 440.15
M 40.2 460.1
Q 37.95 462.25 35.2 462.25 32.25 462.25 30.1 460.1 28.1 458.1 28.1 455.1 28.1 452.2 30.2 450.15 32.3 448 35.2 448 38.05 448 40.2 450.15 42.2 452.15 42.2 455.1 42.2 458 40.2 460.1 Z"/>
</g>

<g id="Layer1_34_MEMBER_0_MEMBER_0_MEMBER_0_FILL">
<path fill="#000000" fill-opacity="0.00392156862745098" stroke="none" d="
M 140 490
L 140 420 70 420 70 490 140 490 Z"/>
</g>

<g id="Layer1_35_MEMBER_0_MEMBER_0_MEMBER_0_FILL">
<path fill="#FFFFFF" stroke="none" d="
M 105.2 440.15
Q 98.9 440.15 93.1 444 87.35 447.85 83.6 454.3 82.9 455.15 83.6 455.75 87.3 462.45 93.1 466.25 98.75 470 105.2 470 111.35 470 117.2 466.2 122.75 462.5 126.7 455.75 127 455.15 126.7 454.3 123 447.65 117.2 443.9 111.5 440.15 105.2 440.15
M 110.2 460.1
Q 107.95 462.25 105.2 462.25 102.25 462.25 100.1 460.1 98.1 458.1 98.1 455.1 98.1 452.2 100.2 450.15 102.3 448 105.2 448 108.05 448 110.2 450.15 112.2 452.15 112.2 455.1 112.2 458 110.2 460.1 Z"/>
</g>

<g id="Layer1_36_MEMBER_0_MEMBER_0_MEMBER_0_FILL">
<path fill="#000000" fill-opacity="0.00392156862745098" stroke="none" d="
M 210 490
L 210 420 140 420 140 490 210 490 Z"/>
</g>

<g id="Layer1_37_MEMBER_0_MEMBER_0_MEMBER_0_FILL">
<path fill="#FFFFFF" stroke="none" d="
M 175.2 440.15
Q 168.9 440.15 163.1 444 157.35 447.85 153.6 454.3 152.9 455.15 153.6 455.75 157.3 462.45 163.1 466.25 168.75 470 175.2 470 181.35 470 187.2 466.2 192.75 462.5 196.7 455.75 197 455.15 196.7 454.3 193 447.65 187.2 443.9 181.5 440.15 175.2 440.15
M 180.2 450.15
Q 182.2 452.15 182.2 455.1 182.2 458 180.2 460.1 177.95 462.25 175.2 462.25 172.25 462.25 170.1 460.1 168.1 458.1 168.1 455.1 168.1 452.2 170.2 450.15 172.3 448 175.2 448 178.05 448 180.2 450.15 Z"/>
</g>

<g id="Layer1_38_MEMBER_0_MEMBER_0_MEMBER_0_FILL">
<path fill="#000000" fill-opacity="0.00392156862745098" stroke="none" d="
M 70 490
L 0 490 0 560 70 560 70 490 Z"/>
</g>

<g id="Layer1_39_MEMBER_0_MEMBER_0_MEMBER_0_FILL">
<path fill="#FFFFFF" stroke="none" d="
M 47.2 536.2
Q 52.75 532.5 56.7 525.75 57 525.15 56.7 524.3 53 517.65 47.2 513.9 41.5 510.15 35.2 510.15 28.9 510.15 23.1 514 17.35 517.85 13.6 524.3 12.9 525.15 13.6 525.75 17.3 532.45 23.1 536.25 28.75 540 35.2 540 41.35 540 47.2 536.2
M 40.2 530.1
Q 37.95 532.25 35.2 532.25 32.25 532.25 30.1 530.1 28.1 528.1 28.1 525.1 28.1 522.2 30.2 520.15 32.3 518 35.2 518 38.05 518 40.2 520.15 42.2 522.15 42.2 525.1 42.2 528 40.2 530.1 Z"/>
</g>

<g id="Layer1_40_MEMBER_0_MEMBER_0_MEMBER_0_FILL">
<path fill="#000000" fill-opacity="0.00392156862745098" stroke="none" d="
M 140 490
L 70 490 70 560 140 560 140 490 Z"/>
</g>

<g id="Layer1_41_MEMBER_0_MEMBER_0_MEMBER_0_FILL">
<path fill="#FFFFFF" stroke="none" d="
M 126.7 525.75
Q 127 525.15 126.7 524.3 123 517.65 117.2 513.9 111.5 510.15 105.2 510.15 98.9 510.15 93.1 514 87.35 517.85 83.6 524.3 82.9 525.15 83.6 525.75 87.3 532.45 93.1 536.25 98.75 540 105.2 540 111.35 540 117.2 536.2 122.75 532.5 126.7 525.75
M 100.1 530.1
Q 98.1 528.1 98.1 525.1 98.1 522.2 100.2 520.15 102.3 518 105.2 518 108.05 518 110.2 520.15 112.2 522.15 112.2 525.1 112.2 528 110.2 530.1 107.95 532.25 105.2 532.25 102.25 532.25 100.1 530.1 Z"/>
</g>

<g id="Layer1_42_MEMBER_0_MEMBER_0_MEMBER_0_FILL">
<path fill="#000000" fill-opacity="0.00392156862745098" stroke="none" d="
M 210 560
L 210 490 140 490 140 560 210 560 Z"/>
</g>

<g id="Layer1_43_MEMBER_0_MEMBER_0_MEMBER_0_FILL">
<path fill="#FFFFFF" stroke="none" d="
M 175.2 510.15
Q 168.9 510.15 163.1 514 157.35 517.85 153.6 524.3 152.9 525.15 153.6 525.75 157.3 532.45 163.1 536.25 168.75 540 175.2 540 181.35 540 187.2 536.2 192.75 532.5 196.7 525.75 197 525.15 196.7 524.3 193 517.65 187.2 513.9 181.5 510.15 175.2 510.15
M 180.2 530.1
Q 177.95 532.25 175.2 532.25 172.25 532.25 170.1 530.1 168.1 528.1 168.1 525.1 168.1 522.2 170.2 520.15 172.3 518 175.2 518 178.05 518 180.2 520.15 182.2 522.15 182.2 525.1 182.2 528 180.2 530.1 Z"/>
</g>

<g id="Layer1_44_MEMBER_0_MEMBER_0_MEMBER_0_FILL">
<path fill="#000000" fill-opacity="0.00392156862745098" stroke="none" d="
M 70 560
L 0 560 0 630 70 630 70 560 Z"/>
</g>

<g id="Layer1_45_MEMBER_0_MEMBER_0_MEMBER_0_FILL">
<path fill="#FFFFFF" stroke="none" d="
M 35.2 580.15
Q 28.9 580.15 23.1 584 17.35 587.85 13.6 594.3 12.9 595.15 13.6 595.75 17.3 602.45 23.1 606.25 28.75 610 35.2 610 41.35 610 47.2 606.2 52.75 602.5 56.7 595.75 57 595.15 56.7 594.3 53 587.65 47.2 583.9 41.5 580.15 35.2 580.15
M 35.2 588
Q 38.05 588 40.2 590.15 42.2 592.15 42.2 595.1 42.2 598 40.2 600.1 37.95 602.25 35.2 602.25 32.25 602.25 30.1 600.1 28.1 598.1 28.1 595.1 28.1 592.2 30.2 590.15 32.3 588 35.2 588 Z"/>
</g>

<g id="Layer1_46_MEMBER_0_MEMBER_0_MEMBER_0_FILL">
<path fill="#000000" fill-opacity="0.00392156862745098" stroke="none" d="
M 140 560
L 70 560 70 630 140 630 140 560 Z"/>
</g>

<g id="Layer1_47_MEMBER_0_MEMBER_0_MEMBER_0_FILL">
<path fill="#FFFFFF" stroke="none" d="
M 105.2 580.15
Q 98.9 580.15 93.1 584 87.35 587.85 83.6 594.3 82.9 595.15 83.6 595.75 87.3 602.45 93.1 606.25 98.75 610 105.2 610 111.35 610 117.2 606.2 122.75 602.5 126.7 595.75 127 595.15 126.7 594.3 123 587.65 117.2 583.9 111.5 580.15 105.2 580.15
M 105.2 588
Q 108.05 588 110.2 590.15 112.2 592.15 112.2 595.1 112.2 598 110.2 600.1 107.95 602.25 105.2 602.25 102.25 602.25 100.1 600.1 98.1 598.1 98.1 595.1 98.1 592.2 100.2 590.15 102.3 588 105.2 588 Z"/>
</g>

<g id="Layer1_48_MEMBER_0_MEMBER_0_MEMBER_0_FILL">
<path fill="#000000" fill-opacity="0.00392156862745098" stroke="none" d="
M 210 560
L 140 560 140 630 210 630 210 560 Z"/>
</g>

<g id="Layer1_49_MEMBER_0_MEMBER_0_MEMBER_0_FILL">
<path fill="#FFFFFF" stroke="none" d="
M 175.2 580.15
Q 168.9 580.15 163.1 584 157.35 587.85 153.6 594.3 152.9 595.15 153.6 595.75 157.3 602.45 163.1 606.25 168.75 610 175.2 610 181.35 610 187.2 606.2 192.75 602.5 196.7 595.75 197 595.15 196.7 594.3 193 587.65 187.2 583.9 181.5 580.15 175.2 580.15
M 175.2 588
Q 178.05 588 180.2 590.15 182.2 592.15 182.2 595.1 182.2 598 180.2 600.1 177.95 602.25 175.2 602.25 172.25 602.25 170.1 600.1 168.1 598.1 168.1 595.1 168.1 592.2 170.2 590.15 172.3 588 175.2 588 Z"/>
</g>

<g id="Layer1_50_MEMBER_0_MEMBER_0_MEMBER_0_FILL">
<path fill="#000000" fill-opacity="0.00392156862745098" stroke="none" d="
M 70 630
L 0 630 0 700 70 700 70 630 Z"/>
</g>

<g id="Layer1_51_MEMBER_0_MEMBER_0_MEMBER_0_FILL">
<path fill="#FFFFFF" stroke="none" d="
M 35.2 650.15
Q 28.9 650.15 23.1 654 17.35 657.85 13.6 664.3 12.9 665.15 13.6 665.75 17.3 672.45 23.1 676.25 28.75 680 35.2 680 41.35 680 47.2 676.2 52.75 672.5 56.7 665.75 57 665.15 56.7 664.3 53 657.65 47.2 653.9 41.5 650.15 35.2 650.15
M 28.1 665.1
Q 28.1 662.2 30.2 660.15 32.3 658 35.2 658 38.05 658 40.2 660.15 42.2 662.15 42.2 665.1 42.2 668 40.2 670.1 37.95 672.25 35.2 672.25 32.25 672.25 30.1 670.1 28.1 668.1 28.1 665.1 Z"/>
</g>

<g id="Layer1_52_MEMBER_0_MEMBER_0_MEMBER_0_FILL">
<path fill="#000000" fill-opacity="0.00392156862745098" stroke="none" d="
M 140 630
L 70 630 70 700 140 700 140 630 Z"/>
</g>

<g id="Layer1_53_MEMBER_0_MEMBER_0_MEMBER_0_FILL">
<path fill="#FFFFFF" stroke="none" d="
M 117.2 653.9
Q 111.5 650.15 105.2 650.15 98.9 650.15 93.1 654 87.35 657.85 83.6 664.3 82.9 665.15 83.6 665.75 87.3 672.45 93.1 676.25 98.75 680 105.2 680 111.35 680 117.2 676.2 122.75 672.5 126.7 665.75 127 665.15 126.7 664.3 123 657.65 117.2 653.9
M 105.2 658
Q 108.05 658 110.2 660.15 112.2 662.15 112.2 665.1 112.2 668 110.2 670.1 107.95 672.25 105.2 672.25 102.25 672.25 100.1 670.1 98.1 668.1 98.1 665.1 98.1 662.2 100.2 660.15 102.3 658 105.2 658 Z"/>
</g>

<g id="Layer1_54_MEMBER_0_MEMBER_0_MEMBER_0_FILL">
<path fill="#000000" fill-opacity="0.00392156862745098" stroke="none" d="
M 140 630
L 140 700 210 700 210 630 140 630 Z"/>
</g>

<g id="Layer1_55_MEMBER_0_MEMBER_0_MEMBER_0_FILL">
<path fill="#FFFFFF" stroke="none" d="
M 153.6 664.3
Q 152.9 665.15 153.6 665.75 157.3 672.45 163.1 676.25 168.75 680 175.2 680 181.35 680 187.2 676.2 192.75 672.5 196.7 665.75 197 665.15 196.7 664.3 193 657.65 187.2 653.9 181.5 650.15 175.2 650.15 168.9 650.15 163.1 654 157.35 657.85 153.6 664.3
M 168.1 665.1
Q 168.1 662.2 170.2 660.15 172.3 658 175.2 658 178.05 658 180.2 660.15 182.2 662.15 182.2 665.1 182.2 668 180.2 670.1 177.95 672.25 175.2 672.25 172.25 672.25 170.1 670.1 168.1 668.1 168.1 665.1 Z"/>
</g>
</defs>

<g transform="matrix( 1, 0, 0, 1, 0,0) ">
<use xlink:href="#Layer1_0_MEMBER_0_MEMBER_0_MEMBER_0_FILL"/>
</g>

<g transform="matrix( 1, 0, 0, 1, 0,0) ">
<use xlink:href="#Layer1_1_MEMBER_0_MEMBER_0_MEMBER_0_FILL"/>
</g>

<g transform="matrix( 1, 0, 0, 1, 0,0) ">
<use xlink:href="#Layer1_2_MEMBER_0_MEMBER_0_MEMBER_0_FILL"/>
</g>

<g transform="matrix( 1, 0, 0, 1, 0,0) ">
<use xlink:href="#Layer1_3_FILL"/>
</g>

<g transform="matrix( 1, 0, 0, 1, 0,0) ">
<use xlink:href="#Layer1_4_MEMBER_0_MEMBER_0_MEMBER_0_FILL"/>
</g>

<g transform="matrix( 1, 0, 0, 1, 0,0) ">
<use xlink:href="#Layer1_5_MEMBER_0_MEMBER_0_MEMBER_0_FILL"/>
</g>

<g transform="matrix( 1, 0, 0, 1, 0,0) ">
<use xlink:href="#Layer1_6_MEMBER_0_MEMBER_0_MEMBER_0_FILL"/>
</g>

<g transform="matrix( 1, 0, 0, 1, 0,0) ">
<use xlink:href="#Layer1_7_MEMBER_0_MEMBER_0_MEMBER_0_FILL"/>
</g>

<g transform="matrix( 1, 0, 0, 1, 0,0) ">
<use xlink:href="#Layer1_8_MEMBER_0_MEMBER_0_MEMBER_0_FILL"/>
</g>

<g transform="matrix( 1, 0, 0, 1, 0,0) ">
<use xlink:href="#Layer1_9_MEMBER_0_MEMBER_0_MEMBER_0_FILL"/>
</g>

<g transform="matrix( 1, 0, 0, 1, 0,0) ">
<use xlink:href="#Layer1_10_MEMBER_0_MEMBER_0_MEMBER_0_FILL"/>
</g>

<g transform="matrix( 1, 0, 0, 1, 0,0) ">
<use xlink:href="#Layer1_11_MEMBER_0_MEMBER_0_MEMBER_0_FILL"/>
</g>

<g transform="matrix( 1, 0, 0, 1, 0,0) ">
<use xlink:href="#Layer1_12_MEMBER_0_MEMBER_0_MEMBER_0_FILL"/>
</g>

<g transform="matrix( 1, 0, 0, 1, 0,0) ">
<use xlink:href="#Layer1_13_MEMBER_0_MEMBER_0_MEMBER_0_FILL"/>
</g>

<g transform="matrix( 1, 0, 0, 1, 0,0) ">
<use xlink:href="#Layer1_14_MEMBER_0_MEMBER_0_MEMBER_0_FILL"/>
</g>

<g transform="matrix( 1, 0, 0, 1, 0,0) ">
<use xlink:href="#Layer1_15_MEMBER_0_MEMBER_0_MEMBER_0_FILL"/>
</g>

<g transform="matrix( 1, 0, 0, 1, 0,0) ">
<use xlink:href="#Layer1_16_MEMBER_0_MEMBER_0_MEMBER_0_FILL"/>
</g>

<g transform="matrix( 1, 0, 0, 1, 0,0) ">
<use xlink:href="#Layer1_17_MEMBER_0_MEMBER_0_MEMBER_0_FILL"/>
</g>

<g transform="matrix( 1, 0, 0, 1, 0,0) ">
<use xlink:href="#Layer1_18_MEMBER_0_MEMBER_0_MEMBER_0_FILL"/>
</g>

<g transform="matrix( 1, 0, 0, 1, 0,0) ">
<use xlink:href="#Layer1_19_MEMBER_0_MEMBER_0_MEMBER_0_FILL"/>
</g>

<g transform="matrix( 1, 0, 0, 1, 0,0) ">
<use xlink:href="#Layer1_20_MEMBER_0_MEMBER_0_MEMBER_0_FILL"/>
</g>

<g transform="matrix( 1, 0, 0, 1, 0,0) ">
<use xlink:href="#Layer1_21_MEMBER_0_MEMBER_0_MEMBER_0_FILL"/>
</g>

<g transform="matrix( 1, 0, 0, 1, 0,0) ">
<use xlink:href="#Layer1_22_MEMBER_0_MEMBER_0_MEMBER_0_FILL"/>
</g>

<g transform="matrix( 1, 0, 0, 1, 0,0) ">
<use xlink:href="#Layer1_23_MEMBER_0_MEMBER_0_MEMBER_0_FILL"/>
</g>

<g transform="matrix( 1, 0, 0, 1, 0,0) ">
<use xlink:href="#Layer1_24_MEMBER_0_MEMBER_0_MEMBER_0_FILL"/>
</g>

<g transform="matrix( 1, 0, 0, 1, 0,0) ">
<use xlink:href="#Layer1_25_MEMBER_0_MEMBER_0_MEMBER_0_FILL"/>
</g>

<g transform="matrix( 1, 0, 0, 1, 0,0) ">
<use xlink:href="#Layer1_26_MEMBER_0_MEMBER_0_MEMBER_0_FILL"/>
</g>

<g transform="matrix( 1, 0, 0, 1, 0,0) ">
<use xlink:href="#Layer1_27_MEMBER_0_MEMBER_0_MEMBER_0_FILL"/>
</g>

<g transform="matrix( 1, 0, 0, 1, 0,0) ">
<use xlink:href="#Layer1_28_MEMBER_0_MEMBER_0_MEMBER_0_FILL"/>
</g>

<g transform="matrix( 1, 0, 0, 1, 0,0) ">
<use xlink:href="#Layer1_29_MEMBER_0_MEMBER_0_MEMBER_0_FILL"/>
</g>

<g transform="matrix( 1, 0, 0, 1, 0,0) ">
<use xlink:href="#Layer1_30_MEMBER_0_MEMBER_0_MEMBER_0_FILL"/>
</g>

<g transform="matrix( 1, 0, 0, 1, 0,0) ">
<use xlink:href="#Layer1_31_MEMBER_0_MEMBER_0_MEMBER_0_FILL"/>
</g>

<g transform="matrix( 1, 0, 0, 1, 0,0) ">
<use xlink:href="#Layer1_32_MEMBER_0_MEMBER_0_MEMBER_0_FILL"/>
</g>

<g transform="matrix( 1, 0, 0, 1, 0,0) ">
<use xlink:href="#Layer1_33_MEMBER_0_MEMBER_0_MEMBER_0_FILL"/>
</g>

<g transform="matrix( 1, 0, 0, 1, 0,0) ">
<use xlink:href="#Layer1_34_MEMBER_0_MEMBER_0_MEMBER_0_FILL"/>
</g>

<g transform="matrix( 1, 0, 0, 1, 0,0) ">
<use xlink:href="#Layer1_35_MEMBER_0_MEMBER_0_MEMBER_0_FILL"/>
</g>

<g transform="matrix( 1, 0, 0, 1, 0,0) ">
<use xlink:href="#Layer1_36_MEMBER_0_MEMBER_0_MEMBER_0_FILL"/>
</g>

<g transform="matrix( 1, 0, 0, 1, 0,0) ">
<use xlink:href="#Layer1_37_MEMBER_0_MEMBER_0_MEMBER_0_FILL"/>
</g>

<g transform="matrix( 1, 0, 0, 1, 0,0) ">
<use xlink:href="#Layer1_38_MEMBER_0_MEMBER_0_MEMBER_0_FILL"/>
</g>

<g transform="matrix( 1, 0, 0, 1, 0,0) ">
<use xlink:href="#Layer1_39_MEMBER_0_MEMBER_0_MEMBER_0_FILL"/>
</g>

<g transform="matrix( 1, 0, 0, 1, 0,0) ">
<use xlink:href="#Layer1_40_MEMBER_0_MEMBER_0_MEMBER_0_FILL"/>
</g>

<g transform="matrix( 1, 0, 0, 1, 0,0) ">
<use xlink:href="#Layer1_41_MEMBER_0_MEMBER_0_MEMBER_0_FILL"/>
</g>

<g transform="matrix( 1, 0, 0, 1, 0,0) ">
<use xlink:href="#Layer1_42_MEMBER_0_MEMBER_0_MEMBER_0_FILL"/>
</g>

<g transform="matrix( 1, 0, 0, 1, 0,0) ">
<use xlink:href="#Layer1_43_MEMBER_0_MEMBER_0_MEMBER_0_FILL"/>
</g>

<g transform="matrix( 1, 0, 0, 1, 0,0) ">
<use xlink:href="#Layer1_44_MEMBER_0_MEMBER_0_MEMBER_0_FILL"/>
</g>

<g transform="matrix( 1, 0, 0, 1, 0,0) ">
<use xlink:href="#Layer1_45_MEMBER_0_MEMBER_0_MEMBER_0_FILL"/>
</g>

<g transform="matrix( 1, 0, 0, 1, 0,0) ">
<use xlink:href="#Layer1_46_MEMBER_0_MEMBER_0_MEMBER_0_FILL"/>
</g>

<g transform="matrix( 1, 0, 0, 1, 0,0) ">
<use xlink:href="#Layer1_47_MEMBER_0_MEMBER_0_MEMBER_0_FILL"/>
</g>

<g transform="matrix( 1, 0, 0, 1, 0,0) ">
<use xlink:href="#Layer1_48_MEMBER_0_MEMBER_0_MEMBER_0_FILL"/>
</g>

<g transform="matrix( 1, 0, 0, 1, 0,0) ">
<use xlink:href="#Layer1_49_MEMBER_0_MEMBER_0_MEMBER_0_FILL"/>
</g>

<g transform="matrix( 1, 0, 0, 1, 0,0) ">
<use xlink:href="#Layer1_50_MEMBER_0_MEMBER_0_MEMBER_0_FILL"/>
</g>

<g transform="matrix( 1, 0, 0, 1, 0,0) ">
<use xlink:href="#Layer1_51_MEMBER_0_MEMBER_0_MEMBER_0_FILL"/>
</g>

<g transform="matrix( 1, 0, 0, 1, 0,0) ">
<use xlink:href="#Layer1_52_MEMBER_0_MEMBER_0_MEMBER_0_FILL"/>
</g>

<g transform="matrix( 1, 0, 0, 1, 0,0) ">
<use xlink:href="#Layer1_53_MEMBER_0_MEMBER_0_MEMBER_0_FILL"/>
</g>

<g transform="matrix( 1, 0, 0, 1, 0,0) ">
<use xlink:href="#Layer1_54_MEMBER_0_MEMBER_0_MEMBER_0_FILL"/>
</g>

<g transform="matrix( 1, 0, 0, 1, 0,0) ">
<use xlink:href="#Layer1_55_MEMBER_0_MEMBER_0_MEMBER_0_FILL"/>
</g>
</svg>
