
<svg xmlns="http://www.w3.org/2000/svg" version="1.1" xmlns:xlink="http://www.w3.org/1999/xlink" preserveAspectRatio="none" x="0px" y="0px" width="126px" height="150px" viewBox="0 0 126 150">
<defs>
<g id="Layer0_0_FILL">
<path fill="#000000" stroke="none" d="
M 22.15 114.75
L 22.15 102.6
Q 19.6 102.75 18.4 101.65 19.75 108.35 21.8 113.8 21.95 114.3 22.15 114.75
M 17.3 98.65
Q 13.1 97.55 10.25 94.45 8.5 96.55 5.45 98.95
L 0.75 102.5
Q 5.4 103.15 10.05 101.95 14.15 100.85 17.3 98.65
M 6.65 88.6
Q 6.55 88.3 6.5 88.05 6.2 88.4 5.95 88.8 3 93.05 0.5 94.7 5.55 94.8 9.15 93.15 7.65 91.15 6.65 88.6
M 46.3 25.5
L 46.3 6.1
Q 41.5 7.85 35.55 11.45 29.9 14.8 25.2 21.05 22.7 24.3 21.5 26.65 19.85 29.35 17.95 34.7 14.4 45.2 14.15 58.1 14.15 58.6 9.85 62.8 5.5 67.15 5.5 67.5
L 8.9 67.15 12.95 66.2
Q 12.9 67.4 12.8 68.55 13.1 68.3 13.45 68.1 15.3 67 17.3 66.6
L 17.3 65.95
Q 17.5 62.4 22.15 62.95
L 22.15 47.7
Q 22.3 31.7 38.4 30.6
L 40.2 30.6
Q 42.35 25.8 46.3 25.5
M 115.45 96.4
Q 113.25 97.95 110.5 98.65
L 110.5 99.3
Q 110.1 102.85 105.75 102.6
L 105.75 122.45
Q 107.5 119.4 109.75 114.65 114.65 104.35 115.35 97.15 115.4 96.8 115.45 96.4
M 91 9.1
Q 86.7 7.1 81.5 5.75
L 81.5 25.5
Q 85.45 25.8 87.7 30.6
L 89.4 30.6
Q 105.55 31.7 105.75 47.7
L 105.75 62.95
Q 110.3 62.4 110.5 65.95
L 110.5 66.6
Q 112.55 67 114.45 68.1 118.95 70.85 121.15 76.5 121.85 78.65 122.05 80.8 123.4 81.4 123.3 80.65
L 116.95 64.45
Q 114.8 57.8 114.15 50.1 112.4 39.05 111.55 35.6 109.95 29.9 106.6 23.65 103.9 19 100.95 16 96.75 11.75 91 9.1 Z"/>

<path fill="#BB54F4" stroke="none" d="
M 17.3 65.95
L 17.3 66.6 17.3 98.65 17.3 99.3
Q 17.45 100.8 18.4 101.65 19.6 102.75 22.15 102.6
L 22.15 62.95
Q 17.5 62.4 17.3 65.95
M 110.5 65.95
Q 110.3 62.4 105.75 62.95
L 105.75 102.6
Q 110.1 102.85 110.5 99.3
L 110.5 98.65 110.5 66.6 110.5 65.95
M 87.7 30.6
Q 85.45 25.8 81.5 25.5
L 46.3 25.5
Q 42.35 25.8 40.2 30.6
L 87.7 30.6 Z"/>

<path fill="#2F2F4A" stroke="none" d="
M 13.45 68.1
Q 13.1 68.3 12.8 68.55 8.7 71.2 6.65 76.5 4.8 82.05 6.5 88.05 6.55 88.3 6.65 88.6 7.65 91.15 9.15 93.15 9.65 93.85 10.25 94.45 13.1 97.55 17.3 98.65
L 17.3 66.6
Q 15.3 67 13.45 68.1
M 114.45 68.1
Q 112.55 67 110.5 66.6
L 110.5 98.65
Q 113.25 97.95 115.45 96.4 119.15 93.75 121.15 88.6 122.4 84.6 122.05 80.8 121.85 78.65 121.15 76.5 118.95 70.85 114.45 68.1
M 81.5 5.75
L 81.5 3.25
Q 72.45 0.75 63.9 0.75 55.4 0.75 46.3 3.25
L 46.3 6.1 46.3 25.5 81.5 25.5 81.5 5.75 Z"/>

<path fill="#1F2034" stroke="none" d="
M 89.4 30.6
L 87.7 30.6 40.2 30.6 38.4 30.6
Q 22.3 31.7 22.15 47.7
L 22.15 62.95 22.15 102.6 22.15 114.75 22.15 123.85
Q 22.35 141.9 41 142.7
L 86.85 142.7
Q 105.5 141.9 105.75 123.85
L 105.75 122.45 105.75 102.6 105.75 62.95 105.75 47.7
Q 105.55 31.7 89.4 30.6
M 99.9 55.65
Q 100.1 57.65 100 59.8
L 100 95.55 100.05 122.9
Q 100.05 123.15 100 123.4 99.9 124.45 99.8 125.45 97.95 137.5 85.3 138.4
L 42.5 138.4
Q 29.65 137.5 28 125 27.85 124.2 27.8 123.4 27.75 123.15 27.75 122.9
L 27.8 95.55 27.8 59.8
Q 27.7 57.65 27.9 55.65 30.45 43.7 41.2 42.35
L 86.65 42.35
Q 97.4 43.7 99.9 55.65 Z"/>

<path fill="#0B0D1A" stroke="none" d="
M 97.4 95.55
L 97.4 60.4
Q 95.45 49.75 84.8 48.65
L 43 48.65
Q 32.45 49.75 30.45 60.4
L 30.45 95.55 30.45 123.45
Q 31.65 133.95 42.85 135.9
L 84.95 135.9
Q 93.3 134.45 96.1 128.25 97.1 126.15 97.4 123.4
L 97.4 95.55 Z"/>

<path fill="#6E0EA9" stroke="none" d="
M 100 95.55
L 97.4 95.55 97.4 123.4
Q 97.1 126.15 96.1 128.25 93.3 134.45 84.95 135.9
L 42.85 135.9
Q 31.65 133.95 30.45 123.45
L 30.45 95.55 27.8 95.55 27.75 122.9
Q 27.75 123.15 27.8 123.4 27.85 124.2 28 125 29.65 137.5 42.5 138.4
L 85.3 138.4
Q 97.95 137.5 99.8 125.45 99.9 124.45 100 123.4 100.05 123.15 100.05 122.9
L 100 95.55 Z"/>

<path fill="#A223F0" stroke="none" d="
M 100 59.8
Q 100.1 57.65 99.9 55.65 97.4 43.7 86.65 42.35
L 41.2 42.35
Q 30.45 43.7 27.9 55.65 27.7 57.65 27.8 59.8
L 27.8 95.55 30.45 95.55 30.45 60.4
Q 32.45 49.75 43 48.65
L 84.8 48.65
Q 95.45 49.75 97.4 60.4
L 97.4 95.55 100 95.55 100 59.8 Z"/>
</g>

<g id="Melody_1_Symbols_7_Layer0_0_FILL">
<path fill="#FFFFFF" stroke="none" d="
M 73.25 137.3
L 69.6 148.2
Q 69.137890625 150.272265625 71.5 150.65
L 80.05 150.65 76.2 165.05
Q 76.504296875 166.137890625 77.35 165.6
L 90.65 147.65
Q 90.994921875 145.75390625 89.15 145.45
L 82.95 145.45 87.05 137.3 73.25 137.3
M 53.85 126.9
Q 54.1912109375 133.2853515625 59.55 134.35
L 101.75 134.35
Q 106.2138671875 134.310546875 108.1 129.3 109.6158203125 124.1474609375 104.2 120.8 105.4041015625 114.0072265625 98.85 109.8 92.216015625 106.4986328125 86.15 111 80.32890625 104.2669921875 70.9 106.65 61.9255859375 110.0607421875 62 119.4 54.6404296875 119.83203125 53.85 126.35 53.8546875 126.628125 53.85 126.9 Z"/>
</g>
</defs>

<g transform="matrix( 1, 0, 0, 1, 0,0) ">
<use xlink:href="#Layer0_0_FILL"/>
</g>

<g transform="matrix( 0.861907958984375, 0, 0, 0.861907958984375, -6.65,-19.45) ">
<g transform="matrix( 1, 0, 0, 1, 0,0) ">
<use xlink:href="#Melody_1_Symbols_7_Layer0_0_FILL"/>
</g>
</g>
</svg>
